<?xml version="1.0" standalone="no"?>
<!DOCTYPE svg PUBLIC "-//W3C//DTD SVG 20010904//EN"
 "http://www.w3.org/TR/2001/REC-SVG-20010904/DTD/svg10.dtd">
<svg version="1.0" xmlns="http://www.w3.org/2000/svg"
 width="700.000000pt" height="538.000000pt" viewBox="0 0 700.000000 538.000000"
 preserveAspectRatio="xMidYMid meet">

<g transform="translate(0.000000,538.000000) scale(0.100000,-0.100000)"
fill="#000000" stroke="none">
<path d="M1925 4883 c-79 -10 -296 -57 -384 -83 -103 -31 -289 -112 -401 -175
-70 -39 -215 -147 -293 -217 -48 -43 -48 -43 -57 -128 -6 -47 -10 -114 -10
-150 0 -36 -3 -88 -6 -116 l-6 -51 -117 -6 c-141 -8 -186 -19 -197 -50 -4 -12
-9 -762 -11 -1667 l-4 -1645 45 -36 46 -36 137 -7 c76 -4 632 -11 1236 -16
605 -5 1100 -10 1101 -12 1 -2 13 -32 25 -68 71 -200 223 -313 421 -312 105 0
176 25 262 91 78 59 122 123 151 220 l24 76 1204 6 c914 4 1213 9 1242 18 22
7 55 28 75 46 l37 33 6 764 c4 420 7 1157 8 1639 l1 875 -33 32 c-44 43 -81
52 -204 52 l-103 0 0 184 0 183 -85 82 c-94 90 -261 204 -402 276 -109 54
-376 145 -523 176 -97 21 -130 23 -435 23 -301 -1 -339 -3 -432 -22 -221 -48
-537 -179 -712 -295 l-85 -57 -30 19 c-17 10 -69 42 -116 71 -271 166 -550
259 -835 280 -132 9 -475 11 -540 3z m545 -254 c239 -22 544 -128 725 -251 28
-19 87 -60 133 -91 100 -69 126 -72 197 -22 163 114 208 143 323 200 144 72
204 93 381 138 l126 32 325 0 325 0 115 -29 c253 -63 438 -144 632 -276 l113
-77 0 -1521 c0 -836 -3 -1523 -7 -1527 -3 -4 -42 9 -85 28 -181 80 -418 141
-607 158 -168 15 -529 6 -651 -16 -327 -58 -605 -177 -890 -382 l-176 -126
-62 43 c-428 299 -671 409 -1037 472 -122 21 -629 17 -755 -6 -122 -22 -334
-84 -435 -126 -41 -18 -87 -37 -102 -43 -15 -6 -31 -8 -35 -3 -4 4 -9 688 -11
1519 l-3 1512 95 73 c178 136 426 242 711 306 160 35 160 36 350 31 105 -3
242 -10 305 -16z m-1697 -1336 c4 -236 8 -759 8 -1163 1 -404 5 -845 8 -980
l6 -244 34 -23 c55 -37 86 -31 258 57 162 81 289 130 467 178 100 27 103 27
431 27 328 0 331 0 431 -27 164 -44 301 -96 427 -160 126 -64 297 -172 297
-187 0 -5 -82 -12 -182 -16 -200 -7 -2264 -3 -2271 5 -2 3 -8 670 -11 1483
l-8 1477 50 0 49 0 6 -427z m5439 -125 c3 -304 3 -970 0 -1479 l-5 -926 -126
-6 c-166 -9 -2083 -9 -2230 0 l-114 6 31 28 c72 64 300 185 467 247 282 105
343 114 711 110 l299 -4 120 -32 c159 -43 325 -110 460 -185 137 -75 185 -84
245 -42 l40 28 0 1087 c0 598 3 1229 7 1403 l6 317 42 0 42 0 5 -552z m-2582
-2674 c0 -40 -105 -127 -167 -140 -34 -7 -119 31 -159 71 -26 26 -32 60 -11
68 18 8 337 8 337 1z"/>
<path d="M3368 3951 c-74 -39 -738 -452 -835 -519 -29 -20 -53 -40 -53 -43 0
-10 67 -52 408 -252 418 -244 544 -317 552 -317 5 0 340 201 418 250 12 8 22
21 22 28 0 13 -109 88 -173 118 -22 11 -37 24 -35 33 2 8 57 47 123 88 176
107 355 225 355 234 0 19 -672 419 -703 419 -3 0 -39 -17 -79 -39z m115 -277
c90 -46 120 -91 75 -115 -13 -6 -85 -52 -161 -101 l-137 -89 -48 34 c-26 20
-56 45 -67 57 l-20 22 30 24 c57 47 267 184 282 184 8 0 28 -7 46 -16z m15
-520 c45 -32 67 -117 42 -165 -22 -40 -98 -61 -152 -40 -26 10 -78 81 -78 106
0 19 68 95 95 105 32 14 69 11 93 -6z"/>
<path d="M4451 3324 c-61 -26 -696 -423 -875 -548 l-91 -63 0 -561 c0 -400 3
-564 11 -572 8 -8 21 -7 47 3 55 23 906 539 938 569 l29 26 0 174 c0 95 -5
180 -10 188 -11 18 -37 5 -334 -169 -104 -61 -193 -108 -197 -105 -5 3 -9 72
-9 153 l0 148 88 53 c259 158 419 261 437 280 18 20 20 39 23 214 4 222 0 235
-57 210z"/>
<path d="M2384 3266 c-16 -12 -17 -41 -11 -499 4 -267 10 -506 13 -529 5 -39
12 -47 58 -78 60 -40 925 -560 932 -560 7 0 5 1087 -2 1105 -13 34 -362 244
-374 225 -8 -14 -20 -319 -20 -522 l0 -149 -32 17 c-18 9 -72 42 -120 73 l-88
56 0 341 0 341 -144 87 c-172 102 -188 109 -212 92z"/>
</g>
</svg>
